#ifndef MELODY_H
#define MELODY_H

#include <Arduino.h>
#include "pitches.h"

const unsigned long TEMP_OF_MUSIC = 1850;                       // определяет длительность целой ноты в миллисекундах
// мелодия
volatile const uint16_t melody2[] PROGMEM   = {NOTE_C3, NOTE_C4,
                    NOTE_E4, NOTE_C4,
                    NOTE_F4, NOTE_C4,
                    NOTE_E4, NOTE_C4,
                    NOTE_D4, NOTE_B3,
                    NOTE_C4, NOTE_A3,
                    NOTE_F3, NOTE_G3,
                    NOTE_C3,
                    NOTE_E4, NOTE_G3,
                    NOTE_D4, NOTE_G3,
                    NOTE_C4, NOTE_G3,
                    NOTE_B3, NOTE_G3,
                    NOTE_E4, NOTE_G3,
                    NOTE_D4, NOTE_G3,
                    NOTE_C4, NOTE_C4, NOTE_D4,
                    NOTE_C4, NOTE_B3,
                    NOTE_C3, NOTE_C4,
                    NOTE_E4, NOTE_C4,
                    NOTE_F4, NOTE_C4,
                    NOTE_E4, NOTE_C4,
                    NOTE_D4, NOTE_B3,
                    NOTE_C4, NOTE_A3,
                    NOTE_F3, NOTE_G3,
                    NOTE_C3,
                    // VAR1
                    NOTE_C3, NOTE_C4,
                    NOTE_E4, NOTE_C4,
                    NOTE_F4, NOTE_C4,
                    NOTE_E4, 0, NOTE_CS4,
                    NOTE_D4, 0, NOTE_B3,
                    NOTE_C4, 0, NOTE_A3,
                    NOTE_F3, NOTE_G3,
                    NOTE_C4, NOTE_G3, NOTE_E3, NOTE_G3,
                    NOTE_C3, NOTE_C4,
                    NOTE_E4, NOTE_C4,
                    NOTE_F4, NOTE_C4,
                    NOTE_E4, 0, NOTE_CS4,
                    NOTE_D4, 0, NOTE_B3,
                    NOTE_C4, 0, NOTE_A3,
                    NOTE_F3, NOTE_G3,
                    NOTE_C4, NOTE_C3,
                    //
                    NOTE_E4, NOTE_G3,
                    NOTE_D4, NOTE_G3, 
                    NOTE_C4, NOTE_G3,
                    NOTE_F4, NOTE_G3,
                    NOTE_E4,
                    NOTE_D4,
                    NOTE_C4, 0, NOTE_C4,
                    NOTE_E4, NOTE_C4, NOTE_B3,
                    NOTE_C3, NOTE_C4,
                    NOTE_E4, NOTE_C4,
                    NOTE_F4, NOTE_C4,
                    NOTE_E4, 0, NOTE_CS4,
                    NOTE_D4, 0, NOTE_B3,
                    NOTE_C4, 0, NOTE_A3,
                    NOTE_F3, NOTE_G3,
                    NOTE_C4, NOTE_C3,
                    //VAR2
                    NOTE_C3, NOTE_C4, NOTE_B3, NOTE_C4, NOTE_D4, NOTE_C4, NOTE_B3, NOTE_C4,
                    NOTE_E3, NOTE_C4, NOTE_B3, NOTE_C4, NOTE_D4, NOTE_C4, NOTE_B3, NOTE_C4,
                    NOTE_F3, NOTE_C4, NOTE_B3, NOTE_C4, NOTE_D4, NOTE_C4, NOTE_B3, NOTE_C4,
                    NOTE_A2, NOTE_C4, NOTE_B3, NOTE_C4, NOTE_D4, NOTE_C4, NOTE_B3, NOTE_C4,
                    NOTE_A2, NOTE_A3, NOTE_GS3, NOTE_A3, NOTE_B2, NOTE_B3, NOTE_AS3, NOTE_B3,
                    NOTE_C3, NOTE_C4, NOTE_B3, NOTE_C4, NOTE_A2, NOTE_A3, NOTE_GS3, NOTE_A3,
                    NOTE_F2, NOTE_F3, NOTE_E3, NOTE_F3, NOTE_G2, NOTE_G3, NOTE_FS3, NOTE_G3,
                    NOTE_C2, NOTE_C3,
                    // reprise
                    NOTE_G3, NOTE_E4, NOTE_DS4, NOTE_E4, NOTE_F4, NOTE_E4, NOTE_DS4, NOTE_E4,
                    NOTE_G3, NOTE_D4, NOTE_CS4, NOTE_D4, NOTE_E4, NOTE_D4, NOTE_CS4, NOTE_D4,
                    NOTE_G3, NOTE_G4, NOTE_FS4, NOTE_G4, NOTE_A4, NOTE_G4, NOTE_FS4, NOTE_G4,
                    NOTE_G3, NOTE_F4, NOTE_E4,  NOTE_F4, NOTE_G4, NOTE_F4, NOTE_E4,  NOTE_F4,
                    NOTE_G3, NOTE_E4, NOTE_DS4, NOTE_E4, NOTE_F4, NOTE_E4, NOTE_DS4, NOTE_E4,
                    NOTE_G3, NOTE_D4, NOTE_CS4, NOTE_D4, NOTE_E4, NOTE_D4, NOTE_CS4, NOTE_D4,
                    NOTE_G3, NOTE_C4, NOTE_B3,  NOTE_C4, NOTE_D4, NOTE_C4, NOTE_B3,  NOTE_C4,
                    NOTE_G3, NOTE_B3, NOTE_AS3, NOTE_B3, NOTE_C4, NOTE_B3, NOTE_AS3, NOTE_B3,
                    NOTE_C3, NOTE_C4, NOTE_B3, NOTE_C4, NOTE_D4, NOTE_C4, NOTE_B3, NOTE_C4,
                    NOTE_E3, NOTE_C4, NOTE_B3, NOTE_C4, NOTE_D4, NOTE_C4, NOTE_B3, NOTE_C4,
                    NOTE_F3, NOTE_C4, NOTE_B3, NOTE_C4, NOTE_D4, NOTE_C4, NOTE_B3, NOTE_C4,
                    NOTE_C3, NOTE_C4, NOTE_B3, NOTE_C4, NOTE_CS3, NOTE_CS4, NOTE_C4, NOTE_CS4,
                    NOTE_D3, NOTE_D4, NOTE_CS4, NOTE_D4, NOTE_B2, NOTE_B3, NOTE_AS3, NOTE_B3,
                    NOTE_C3, NOTE_C4, NOTE_B3, NOTE_C4, NOTE_A2, NOTE_A3, NOTE_GS3, NOTE_A3,
                    NOTE_F2, NOTE_F3, NOTE_E3, NOTE_F3, NOTE_G2, NOTE_G3, NOTE_FS3, NOTE_G3,
                    NOTE_C2, NOTE_C3
                    };                  // значение ноты, описывается в файле pitches.h
// длительность нот в мелодии //MAIN THEME
volatile const uint16_t duration2[] PROGMEM  = {4, 4,
                    4, 4,
                    4, 4,
                    4, 4,
                    4, 4,
                    4, 4,
                    4, 4,
                    2,
                    4, 4,
                    4, 4,
                    4, 4,
                    4, 4,
                    4, 4,
                    4, 4,
                    4, 5, 16,
                    4, 4,
                    4, 4,
                    4, 4,
                    4, 4,
                    4, 4,
                    4, 4,
                    4, 4,
                    4, 4,
                    2,
                   // VAR1
                    4, 4,
                    4, 4,
                    4, 4,
                    4, 5, 16,
                    4, 5, 16,
                    4, 5, 16,
                    4, 4,
                    8, 8, 8, 8,
                    4, 4,
                    4, 4,
                    4, 4,
                    4, 5, 16,
                    4, 5, 16,
                    4, 5, 16,
                    4, 4,
                    4, 4,
                    //
                    4, 4,
                    4, 4,
                    4, 4,
                    4, 4,
                    2,
                    2,
                    4, 5 , 16,
                    5, 16, 4,
                    4, 4,
                    4, 4,
                    4, 4,
                    4, 5, 16,
                    4, 5, 16,
                    4, 5, 16,
                    4, 4,
                    4, 4,
                    // VAR2
                    16, 16, 16, 16, 16, 16, 16, 16,
                    16, 16, 16, 16, 16, 16, 16, 16,
                    16, 16, 16, 16, 16, 16, 16, 16,
                    16, 16, 16, 16, 16, 16, 16, 16,
                    16, 16, 16, 16, 16, 16, 16, 16,
                    16, 16, 16, 16, 16, 16, 16, 16,
                    16, 16, 16, 16, 16, 16, 16, 16,
                    4, 4,
                    // reprise
                    16, 16, 16, 16, 16, 16, 16, 16,
                    16, 16, 16, 16, 16, 16, 16, 16,
                    16, 16, 16, 16, 16, 16, 16, 16,
                    16, 16, 16, 16, 16, 16, 16, 16,
                    16, 16, 16, 16, 16, 16, 16, 16,
                    16, 16, 16, 16, 16, 16, 16, 16,
                    16, 16, 16, 16, 16, 16, 16, 16,
                    16, 16, 16, 16, 16, 16, 16, 16,
                    16, 16, 16, 16, 16, 16, 16, 16,
                    16, 16, 16, 16, 16, 16, 16, 16,
                    16, 16, 16, 16, 16, 16, 16, 16,
                    16, 16, 16, 16, 16, 16, 16, 16,
                    16, 16, 16, 16, 16, 16, 16, 16,
                    16, 16, 16, 16, 16, 16, 16, 16,
                    16, 16, 16, 16, 16, 16, 16, 16,
                    4, 4
                    };
// мелодия // Main theme
const uint16_t melody[] PROGMEM   = {NOTE_C5, NOTE_C5,
                   NOTE_G5, NOTE_G5,
                   NOTE_A5, NOTE_A5,
                   NOTE_G5, NOTE_G5,
                   NOTE_F5, NOTE_F5,
                   NOTE_E5, NOTE_E5,
                   NOTE_D5, NOTE_D5, NOTE_E5,
                   NOTE_C5,
                   NOTE_G5, NOTE_G5,
                   NOTE_F5, NOTE_F5,
                   NOTE_E5, NOTE_E5,
                   NOTE_D5, NOTE_D5,
                   NOTE_G5, NOTE_G5,
                   NOTE_F5, NOTE_F5,
                   NOTE_E5, NOTE_E5, NOTE_F5,
                   NOTE_E5, NOTE_D5,
                   NOTE_C5, NOTE_C5,
                   NOTE_G5, NOTE_G5,
                   NOTE_A5, NOTE_A5,
                   NOTE_G5, NOTE_G5,
                   NOTE_F5, NOTE_F5,
                   NOTE_E5, NOTE_E5,
                   NOTE_D5, NOTE_D5, NOTE_E5,
                   NOTE_C5,
                   // VAR 1
                   NOTE_D5, NOTE_C5, NOTE_B4,  NOTE_C5, NOTE_B4,  NOTE_C5, NOTE_B4,  NOTE_C5,
                   NOTE_A5, NOTE_G5, NOTE_FS5, NOTE_G5, NOTE_FS5, NOTE_G5, NOTE_FS5, NOTE_G5,
                   NOTE_GS5,NOTE_A5, NOTE_C6,  NOTE_B5, NOTE_D6,  NOTE_C6, NOTE_B5,  NOTE_A5,
                   NOTE_A5, NOTE_G5, NOTE_E6,  NOTE_D6, NOTE_C6,  NOTE_B5, NOTE_A5,  NOTE_G5,
                   /*G5*/   NOTE_F5, NOTE_D6,  NOTE_C6, NOTE_B5,  NOTE_A5, NOTE_G5,  NOTE_F5,
                   /*F5*/   NOTE_E5, NOTE_C6, NOTE_B5,  NOTE_A5, NOTE_G5,  NOTE_F5,  NOTE_E5,
                   NOTE_D5, NOTE_A5, NOTE_G5, NOTE_B4,
                   NOTE_C5, 0,
                   NOTE_D5, NOTE_C5, NOTE_B4,  NOTE_C5, NOTE_B4,  NOTE_C5, NOTE_B4,  NOTE_C5,
                   NOTE_A5, NOTE_G5, NOTE_FS5, NOTE_G5, NOTE_FS5, NOTE_G5, NOTE_FS5, NOTE_G5,
                   NOTE_GS5,NOTE_A5, NOTE_C6,  NOTE_B5, NOTE_D6,  NOTE_C6, NOTE_B5,  NOTE_A5,
                   NOTE_A5, NOTE_G5, NOTE_E6,  NOTE_D6, NOTE_C6,  NOTE_B5, NOTE_A5,  NOTE_G5,
                   /*G5*/   NOTE_F5, NOTE_D6,  NOTE_C6, NOTE_B5,  NOTE_A5, NOTE_G5,  NOTE_F5,
                   /*F5*/   NOTE_E5, NOTE_C6, NOTE_B5,  NOTE_A5, NOTE_G5,  NOTE_F5,  NOTE_E5,
                   NOTE_D5, NOTE_A5, NOTE_G5, NOTE_B4,
                   NOTE_C5, 0,
                   NOTE_A5, NOTE_G5, NOTE_FS5, NOTE_G5, NOTE_FS5, NOTE_G5, NOTE_A5, NOTE_G5,
                   NOTE_G5, NOTE_F5, NOTE_E5,  NOTE_F5, NOTE_E5,  NOTE_F5, NOTE_G5, NOTE_F5,
                   NOTE_F5, NOTE_E5, NOTE_DS5, NOTE_E5, NOTE_DS5, NOTE_E5, NOTE_F5, NOTE_E5,
                   NOTE_E5, NOTE_D5, NOTE_CS5, NOTE_D5, NOTE_CS5, NOTE_D5, NOTE_E5, NOTE_D5,
                   NOTE_A5, NOTE_G5, NOTE_FS5, NOTE_G5, NOTE_E6,  NOTE_C6, NOTE_A5, NOTE_G5,
                   NOTE_G5, NOTE_F5, NOTE_E5,  NOTE_F5, NOTE_D6,  NOTE_B5, NOTE_G5, NOTE_F5,
                   NOTE_F5, NOTE_E5, NOTE_DS5, NOTE_E5, NOTE_C6,  NOTE_G5, NOTE_F5, NOTE_E5,
                   NOTE_G5, NOTE_E5, NOTE_D5,
                   NOTE_D5, NOTE_C5, NOTE_B4,  NOTE_C5, NOTE_B4,  NOTE_C5, NOTE_B4,  NOTE_C5,
                   NOTE_A5, NOTE_G5, NOTE_FS5, NOTE_G5, NOTE_FS5, NOTE_G5, NOTE_FS5, NOTE_G5,
                   NOTE_GS5,NOTE_A5, NOTE_C6,  NOTE_B5, NOTE_D6,  NOTE_C6, NOTE_B5,  NOTE_A5,
                   NOTE_A5, NOTE_G5, NOTE_E6,  NOTE_D6, NOTE_C6,  NOTE_B5, NOTE_A5,  NOTE_G5,
                   /*G5*/   NOTE_F5, NOTE_D6,  NOTE_C6, NOTE_B5,  NOTE_A5, NOTE_G5,  NOTE_F5,
                   /*F5*/   NOTE_E5, NOTE_C6, NOTE_B5,  NOTE_A5, NOTE_G5,  NOTE_F5,  NOTE_E5,
                   NOTE_D5, NOTE_A5, NOTE_G5, NOTE_B4,
                   NOTE_C5, 0,
                   // VAR2
                   NOTE_C5, NOTE_C5,
                   NOTE_G5, NOTE_G5,
                   NOTE_A5, NOTE_A5,
                   NOTE_G5, NOTE_G5,
                   NOTE_F5, NOTE_F5,
                   NOTE_E5, NOTE_E5,
                   NOTE_D5, NOTE_D5, NOTE_E5,
                   NOTE_C5, 0,
                   NOTE_G5, NOTE_G5,
                   NOTE_F5, NOTE_F5,
                   NOTE_E5, NOTE_D5, NOTE_E5, NOTE_F5,
                   NOTE_E5, NOTE_D5,
                   NOTE_G5, NOTE_G5,
                   NOTE_F5, NOTE_F5,
                   NOTE_E5, NOTE_D5, NOTE_E5, NOTE_F5,
                   NOTE_E5, NOTE_D5,
                   NOTE_C5, NOTE_C5, NOTE_B4, NOTE_C5,
                   NOTE_G5, NOTE_G5,
                   NOTE_A5, NOTE_A5,
                   NOTE_G5, NOTE_G5,
                   NOTE_F5, NOTE_F5,
                   NOTE_E5, NOTE_E5,
                   NOTE_D5, NOTE_D5, NOTE_E5,
                   NOTE_C5, 0
                   };                  // значение ноты, описывается в файле pitches.h
// длительность нот в мелодии // Main Theme
const uint16_t duration[] PROGMEM = {4, 4,
                   4, 4,
                   4, 4,
                   4, 4,
                   4, 4,
                   4, 4,
                   4, 5, 16,
                   2,
                   4, 4,
                   4, 4,
                   4, 4,
                   4, 4,
                   4, 4,
                   4, 4,
                   4, 5, 16,
                   4, 4,
                   4, 4,
                   4, 4,
                   4, 4,
                   4, 4,
                   4, 4,
                   4, 4,
                   4, 5, 16,
                   2,
                   // VAR1
                   16, 16, 16, 16, 16, 16, 16, 16,
                   16, 16, 16, 16, 16, 16, 16, 16,
                   16, 16, 16, 16, 16, 16, 16, 16,
                   16, 16, 16, 16, 16, 16, 16, 8,
                   16, 16, 16, 16, 16, 16, 8,
                   16, 16, 16, 16, 16, 16, 16,
                   8, 8, 8, 8,
                   4, 4,
                   16, 16, 16, 16, 16, 16, 16, 16,
                   16, 16, 16, 16, 16, 16, 16, 16,
                   16, 16, 16, 16, 16, 16, 16, 16,
                   16, 16, 16, 16, 16, 16, 16, 8,
                   16, 16, 16, 16, 16, 16, 8,
                   16, 16, 16, 16, 16, 16, 16,
                   8, 8, 8, 8,
                   4, 4,
                   //
                   16, 16, 16, 16, 16, 16, 16, 16,
                   16, 16, 16, 16, 16, 16, 16, 16,
                   16, 16, 16, 16, 16, 16, 16, 16,
                   16, 16, 16, 16, 16, 16, 16, 16,
                   16, 16, 16, 16, 16, 16, 16, 16,
                   16, 16, 16, 16, 16, 16, 16, 16,
                   16, 16, 16, 16, 16, 16, 16, 16,
                   5, 16, 4,
                   16, 16, 16, 16, 16, 16, 16, 16,
                   16, 16, 16, 16, 16, 16, 16, 16,
                   16, 16, 16, 16, 16, 16, 16, 16,
                   16, 16, 16, 16, 16, 16, 16, 8,
                   16, 16, 16, 16, 16, 16, 8,
                   16, 16, 16, 16, 16, 16, 16,
                   8, 8, 8, 8,
                   4, 4,
                   // VAR2
                   4, 4,
                   4, 4,
                   4, 4,
                   4, 4, 
                   4, 4, 
                   4, 4, 
                   4, 5, 16, 
                   4, 4, 
                   //
                   4, 4,
                   4, 4,
                   5, 16, 5, 16,
                   4, 4,
                   4, 4,
                   4, 4,
                   5, 16, 5, 16,
                   4, 4,
                   4, 5, 32, 32,
                   4, 4,
                   4, 4,
                   4, 4,
                   4, 4,
                   4, 4,
                   4, 5, 16,
                   4, 4
                   };
#endif // MELODY_H
